<svg width="1334" height="500" viewBox="0 0 1334 500" fill="none" xmlns="http://www.w3.org/2000/svg">
<path d="M408.721 463.08C311.168 399.456 213.601 335.847 116.047 272.223C132.054 287.716 148.061 303.223 164.068 318.716V411.701L22.3086 499.785V78.9238C151.113 206.976 279.917 335.028 408.721 463.08ZM413.299 422.208V1.34692L271.539 89.4312V182.416C287.546 197.909 303.553 213.416 319.56 228.909C222.007 165.285 124.439 101.676 26.886 38.0522C155.69 166.104 284.495 294.156 413.299 422.208Z" fill="black"/>
<path d="M461.125 319.57V190.161H489.41L557.442 282.411L551.341 281.671C550.479 274.77 549.739 268.361 549.123 262.445C548.507 256.406 548.075 250.12 547.829 243.588C547.706 237.056 547.644 229.538 547.644 221.034V190.161H578.332V319.57H549.677L479.057 224.547L488.116 225.841C488.978 233.359 489.656 239.583 490.149 244.512C490.642 249.442 491.012 253.694 491.259 257.268C491.505 260.719 491.69 263.985 491.813 267.067C491.936 270.025 491.998 273.352 491.998 277.05V319.57H461.125ZM608.21 319.57L659.419 190.161H686.226L737.065 319.57H705.267L680.68 253.941C679.817 251.353 678.831 248.58 677.722 245.622C676.736 242.664 675.75 239.583 674.764 236.378C673.778 233.174 672.853 230.093 671.991 227.135C671.128 224.177 670.388 221.404 669.772 218.816L675.133 218.631C674.394 221.712 673.593 224.731 672.73 227.689C671.867 230.647 670.943 233.605 669.957 236.563C668.971 239.521 667.924 242.479 666.814 245.437C665.828 248.271 664.781 251.229 663.672 254.311L639.269 319.57H608.21ZM632.613 294.797L642.596 270.764H701.755L711.738 294.797H632.613ZM767.063 319.57V190.161H795.348L842.305 266.512L822.339 266.327L869.851 190.161H897.211V319.57H866.523V280.377C866.523 269.039 866.77 258.871 867.263 249.874C867.879 240.753 868.865 231.818 870.22 223.068L873.733 232.681L838.053 287.957H825.482L790.541 233.051L794.054 223.068C795.533 231.325 796.519 239.891 797.012 248.764C797.628 257.515 797.936 268.053 797.936 280.377V319.57H767.063ZM940.828 319.57V292.948H962.642V216.782H940.828V190.161H1016.07V216.782H994.255V292.948H1016.07V319.57H940.828ZM1087.74 319.57V218.076H1049.66V190.161H1158.73V218.076H1119.35V319.57H1087.74ZM1248.02 321.418C1238.29 321.418 1229.29 319.755 1221.03 316.427C1212.9 313.099 1205.81 308.477 1199.77 302.562C1193.86 296.523 1189.24 289.436 1185.91 281.302C1182.58 273.044 1180.92 264.047 1180.92 254.311C1180.92 244.697 1182.58 235.824 1185.91 227.689C1189.24 219.432 1193.86 212.283 1199.77 206.244C1205.81 200.205 1212.9 195.522 1221.03 192.194C1229.29 188.867 1238.29 187.203 1248.02 187.203C1257.64 187.203 1266.51 188.867 1274.65 192.194C1282.78 195.522 1289.8 200.205 1295.72 206.244C1301.76 212.283 1306.44 219.432 1309.77 227.689C1313.1 235.824 1314.76 244.759 1314.76 254.495C1314.76 264.109 1313.1 272.982 1309.77 281.117C1306.44 289.251 1301.76 296.338 1295.72 302.377C1289.8 308.416 1282.78 313.099 1274.65 316.427C1266.51 319.755 1257.64 321.418 1248.02 321.418ZM1248.02 291.654C1253.08 291.654 1257.7 290.73 1261.89 288.881C1266.08 287.033 1269.72 284.444 1272.8 281.117C1276 277.789 1278.47 273.845 1280.19 269.285C1281.92 264.725 1282.78 259.795 1282.78 254.495C1282.78 249.073 1281.92 244.081 1280.19 239.521C1278.47 234.961 1276 231.017 1272.8 227.689C1269.72 224.238 1266.08 221.589 1261.89 219.74C1257.7 217.891 1253.08 216.967 1248.02 216.967C1242.97 216.967 1238.29 217.891 1233.97 219.74C1229.78 221.589 1226.09 224.238 1222.88 227.689C1219.8 231.017 1217.4 234.961 1215.67 239.521C1213.95 244.081 1213.08 249.073 1213.08 254.495C1213.08 261.644 1214.56 268.053 1217.52 273.722C1220.6 279.268 1224.73 283.643 1229.91 286.848C1235.21 290.052 1241.25 291.654 1248.02 291.654Z" fill="black"/>
</svg>
